<?xml version="1.0" encoding="UTF-8" standalone="no"?>
<!-- Created with Inkscape (http://www.inkscape.org/) -->

<svg
   xmlns:dc="http://purl.org/dc/elements/1.1/"
   xmlns:cc="http://creativecommons.org/ns#"
   xmlns:rdf="http://www.w3.org/1999/02/22-rdf-syntax-ns#"
   xmlns:svg="http://www.w3.org/2000/svg"
   xmlns="http://www.w3.org/2000/svg"
   xmlns:sodipodi="http://sodipodi.sourceforge.net/DTD/sodipodi-0.dtd"
   xmlns:inkscape="http://www.inkscape.org/namespaces/inkscape"
   width="1000"
   height="1000"
   viewBox="0 0 264.58333 264.58334"
   version="1.1"
   id="svg8"
   inkscape:version="0.92.1 r15371"
   sodipodi:docname="nex-logo.svg">
  <defs
     id="defs2" />
  <sodipodi:namedview
     id="base"
     pagecolor="#ffffff"
     bordercolor="#666666"
     borderopacity="1.0"
     inkscape:pageopacity="0.0"
     inkscape:pageshadow="2"
     inkscape:zoom="0.35"
     inkscape:cx="-468.73593"
     inkscape:cy="315.90094"
     inkscape:document-units="mm"
     inkscape:current-layer="layer1"
     showgrid="false"
     units="px"
     inkscape:window-width="1920"
     inkscape:window-height="1138"
     inkscape:window-x="-8"
     inkscape:window-y="-8"
     inkscape:window-maximized="1" />
  <metadata
     id="metadata5">
    <rdf:RDF>
      <cc:Work
         rdf:about="">
        <dc:format>image/svg+xml</dc:format>
        <dc:type
           rdf:resource="http://purl.org/dc/dcmitype/StillImage" />
        <dc:title />
      </cc:Work>
    </rdf:RDF>
  </metadata>
  <g
     inkscape:label="Layer 1"
     inkscape:groupmode="layer"
     id="layer1"
     transform="translate(0,-32.4166)">
    <g
       aria-label="nex"
       style="font-style:normal;font-variant:normal;font-weight:300;font-stretch:normal;font-size:172.56236267px;line-height:1.25;font-family:'Open Sans';-inkscape-font-specification:'Open Sans Light';font-variant-ligatures:normal;font-variant-caps:normal;font-variant-numeric:normal;font-feature-settings:normal;text-align:start;letter-spacing:0px;word-spacing:0px;writing-mode:lr-tb;text-anchor:start;fill:#ffa500;fill-opacity:0.9951691;stroke:none;stroke-width:6.47108936"
       id="text4487">
      <path
         d="m 65.588093,241.3429 v -59.40258 q 0,-13.81847 -5.813869,-20.05363 -5.813869,-6.31942 -18.031419,-6.31942 -16.430498,0 -24.098064,8.34164 -7.583307,8.25737 -7.583307,26.87861 V 241.3429 H 1.7197964 v -91.5895 h 7.0777531 l 1.6009205,12.55459 h 0.505554 q 8.93145,-14.32403 31.76563,-14.32403 31.175817,0 31.175817,33.45081 v 59.90813 z"
         style="font-style:normal;font-variant:normal;font-weight:300;font-stretch:normal;font-family:'Open Sans';-inkscape-font-specification:'Open Sans Light';stroke-width:6.47108936;fill:#ffa500;fill-opacity:0.9951691"
         id="path4535" />
      <path
         d="m 140.49431,243.02807 q -19.96937,0 -31.17582,-12.3018 -11.12218,-12.30181 -11.12218,-34.46192 0,-21.90733 10.78515,-35.05173 10.78515,-13.22866 29.06934,-13.22866 16.17772,0 25.53047,11.2907 9.35274,11.2907 9.35274,30.67027 v 6.74071 h -65.97477 q 0.16852,18.87401 8.76293,28.81657 8.67868,9.94256 24.77214,9.94256 7.83608,0 13.73421,-1.09537 5.98239,-1.09537 15.08236,-4.7185 v 7.58331 q -7.75183,3.37035 -14.32403,4.54998 -6.5722,1.26388 -14.49254,1.26388 z m -2.44351,-87.62932 q -13.22866,0 -21.23326,8.76293 -8.0046,8.67868 -9.35274,25.10917 h 56.62202 q 0,-15.92494 -6.90923,-24.85639 -6.90924,-9.01571 -19.12679,-9.01571 z"
         style="font-style:normal;font-variant:normal;font-weight:300;font-stretch:normal;font-family:'Open Sans';-inkscape-font-specification:'Open Sans Light';stroke-width:6.47108936;fill:#ffa500;fill-opacity:0.9951691"
         id="path4537" />
      <path
         d="M 220.70885,194.24213 188.77471,149.7534 h 9.60552 l 27.2999,38.59061 27.04713,-38.59061 h 9.18423 l -31.4286,44.48873 33.70359,47.10077 h -9.68978 l -28.81657,-40.8656 -28.98508,40.8656 h -9.18423 z"
         style="font-style:normal;font-variant:normal;font-weight:300;font-stretch:normal;font-family:'Open Sans';-inkscape-font-specification:'Open Sans Light';stroke-width:6.47108936;fill:#ffa500;fill-opacity:0.9951691"
         id="path4539" />
    </g>
    <g
       aria-label="de publicidad"
       style="font-style:normal;font-variant:normal;font-weight:normal;font-stretch:normal;font-size:44.39109039px;line-height:1.25;font-family:'Open Sans';-inkscape-font-specification:'Open Sans';font-variant-ligatures:normal;font-variant-caps:normal;font-variant-numeric:normal;font-feature-settings:normal;text-align:start;letter-spacing:0px;word-spacing:0px;writing-mode:lr-tb;text-anchor:start;fill:#ffa500;fill-opacity:1;stroke:none;stroke-width:1.66466618"
       id="text4495">
      <path
         d="m 11.428674,260.74926 q 2.55769,0 4.421769,0.93204 1.864079,0.93204 3.338002,3.18627 h 0.130052 q -0.130052,-2.73109 -0.130052,-5.3538 v -8.47506 h 2.124183 v 33.72682 h -1.408897 l -0.541883,-3.5981 h -0.173403 q -2.687742,4.03161 -7.71642,4.03161 -4.876951,0 -7.4563161,-3.03455 -2.5793651,-3.03454 -2.5793651,-8.84353 0,-6.11245 2.5576897,-9.34207 2.5576898,-3.22963 7.4346405,-3.22963 z m 0,1.95078 q -3.8582098,0 -5.8089902,2.70942 -1.929105,2.70941 -1.929105,7.86814 0,10.01401 7.7814462,10.01401 3.988262,0 5.852341,-2.31926 1.864079,-2.31926 1.864079,-7.65139 v -0.36849 q 0,-5.46218 -1.842404,-7.84647 -1.820728,-2.40596 -5.917367,-2.40596 z"
         style="font-style:normal;font-variant:normal;font-weight:300;font-stretch:normal;font-family:'Open Sans';-inkscape-font-specification:'Open Sans Light';stroke-width:1.66466618;fill:#ffa500;fill-opacity:1"
         id="path4510" />
      <path
         d="m 38.761274,285.19904 q -5.137055,0 -8.019875,-3.1646 -2.861145,-3.1646 -2.861145,-8.86521 0,-5.63559 2.774444,-9.01694 2.774443,-3.40303 7.477991,-3.40303 4.161665,0 6.567627,2.9045 2.405962,2.90449 2.405962,7.88982 v 1.73402 H 30.134489 q 0.04335,4.85528 2.254235,7.41297 2.23256,2.55769 6.37255,2.55769 2.015806,0 3.53308,-0.28178 1.538948,-0.28178 3.879885,-1.21382 v 1.95078 q -1.994131,0.86702 -3.684807,1.17047 -1.690677,0.32513 -3.728158,0.32513 z m -0.628585,-22.54235 q -3.403028,0 -5.462185,2.25423 -2.059157,2.23256 -2.405963,6.45926 h 14.565827 q 0,-4.09664 -1.777378,-6.39423 -1.777377,-2.31926 -4.920301,-2.31926 z"
         style="font-style:normal;font-variant:normal;font-weight:300;font-stretch:normal;font-family:'Open Sans';-inkscape-font-specification:'Open Sans Light';stroke-width:1.66466618;fill:#ffa500;fill-opacity:1"
         id="path4512" />
      <path
         d="m 75.21919,285.19904 q -5.44051,0 -7.933173,-4.07496 h -0.151728 l 0.06503,1.82073 q 0.0867,1.60397 0.0867,3.5114 v 8.97359 h -2.145859 v -34.22536 h 1.820729 l 0.411831,3.35968 h 0.130052 q 2.427638,-3.81486 7.759771,-3.81486 4.768574,0 7.261238,3.14292 2.514339,3.12125 2.514339,9.10365 0,5.80899 -2.644391,9.01694 -2.622716,3.18627 -7.174537,3.18627 z m -0.04335,-1.90743 q 3.619782,0 5.592237,-2.68774 1.994131,-2.68774 1.994131,-7.52134 0,-10.38249 -7.499666,-10.38249 -4.118314,0 -6.047419,2.27591 -1.929105,2.25424 -1.929105,7.36962 v 0.69361 q 0,5.52721 1.842403,7.88982 1.864079,2.36261 6.047419,2.36261 z"
         style="font-style:normal;font-variant:normal;font-weight:300;font-stretch:normal;font-family:'Open Sans';-inkscape-font-specification:'Open Sans Light';stroke-width:1.66466618;fill:#ffa500;fill-opacity:1"
         id="path4514" />
      <path
         d="m 93.44815,261.20444 v 15.25944 q 0,3.55475 1.495598,5.1804 1.495598,1.60398 4.638522,1.60398 4.20502,0 6.17747,-2.12418 1.99413,-2.12419 1.99413,-6.91444 v -13.0052 h 2.12419 v 23.56109 h -1.82073 l -0.39016,-3.2513 h -0.13005 q -2.29759,3.68481 -8.171603,3.68481 -8.04155,0 -8.04155,-8.60511 v -15.38949 z"
         style="font-style:normal;font-variant:normal;font-weight:300;font-stretch:normal;font-family:'Open Sans';-inkscape-font-specification:'Open Sans Light';stroke-width:1.66466618;fill:#ffa500;fill-opacity:1"
         id="path4516" />
      <path
         d="m 127.71686,260.74926 q 4.94197,0 7.43464,3.12125 2.51434,3.09957 2.51434,9.08196 0,5.87402 -2.64439,9.0603 -2.62272,3.18627 -7.39129,3.18627 -2.51434,0 -4.53015,-1.04042 -2.01581,-1.04041 -3.18627,-2.94784 h -0.19508 l -0.60691,3.55475 h -1.34387 v -33.72682 h 2.14586 v 8.47506 q 0,1.90743 -0.0867,3.5114 l -0.065,1.8424 h 0.15173 q 1.34387,-2.12418 3.22962,-3.12124 1.90743,-0.99707 4.5735,-0.99707 z m -0.0434,1.95078 q -4.16167,0 -5.96072,2.38429 -1.79905,2.38428 -1.79905,7.86814 v 0.36849 q 0,5.33213 1.86408,7.65139 1.88575,2.31926 5.85234,2.31926 3.85821,0 5.80899,-2.68774 1.95078,-2.70942 1.95078,-7.69475 0,-10.20908 -7.71642,-10.20908 z"
         style="font-style:normal;font-variant:normal;font-weight:300;font-stretch:normal;font-family:'Open Sans';-inkscape-font-specification:'Open Sans Light';stroke-width:1.66466618;fill:#ffa500;fill-opacity:1"
         id="path4518" />
      <path
         d="m 146.35765,284.76553 h -2.14586 v -33.72682 h 2.14586 z"
         style="font-style:normal;font-variant:normal;font-weight:300;font-stretch:normal;font-family:'Open Sans';-inkscape-font-specification:'Open Sans Light';stroke-width:1.66466618;fill:#ffa500;fill-opacity:1"
         id="path4520" />
      <path
         d="m 156.415,284.76553 h -2.14586 v -23.56109 h 2.14586 z m -2.44931,-30.10704 q 0,-2.08083 1.36555,-2.08083 0.67193,0 1.04041,0.54188 0.39016,0.54188 0.39016,1.53895 0,0.97539 -0.39016,1.53895 -0.36848,0.56356 -1.04041,0.56356 -1.36555,0 -1.36555,-2.10251 z"
         style="font-style:normal;font-variant:normal;font-weight:300;font-stretch:normal;font-family:'Open Sans';-inkscape-font-specification:'Open Sans Light';stroke-width:1.66466618;fill:#ffa500;fill-opacity:1"
         id="path4522" />
      <path
         d="m 173.7336,285.19904 q -5.05035,0 -7.9115,-3.18627 -2.86114,-3.18628 -2.86114,-8.88689 0,-5.85234 2.96952,-9.10364 2.96952,-3.27298 8.12825,-3.27298 3.05622,0 5.85234,1.06209 l -0.58523,1.90743 q -3.05623,-1.01874 -5.31046,-1.01874 -4.33507,0 -6.56763,2.68774 -2.23256,2.66607 -2.23256,7.69475 0,4.76857 2.23256,7.47799 2.23256,2.68774 6.2425,2.68774 3.20795,0 5.96072,-1.14879 v 1.99413 q -2.25424,1.10544 -5.91737,1.10544 z"
         style="font-style:normal;font-variant:normal;font-weight:300;font-stretch:normal;font-family:'Open Sans';-inkscape-font-specification:'Open Sans Light';stroke-width:1.66466618;fill:#ffa500;fill-opacity:1"
         id="path4524" />
      <path
         d="m 187.54078,284.76553 h -2.14586 v -23.56109 h 2.14586 z m -2.44931,-30.10704 q 0,-2.08083 1.36554,-2.08083 0.67194,0 1.04042,0.54188 0.39016,0.54188 0.39016,1.53895 0,0.97539 -0.39016,1.53895 -0.36848,0.56356 -1.04042,0.56356 -1.36554,0 -1.36554,-2.10251 z"
         style="font-style:normal;font-variant:normal;font-weight:300;font-stretch:normal;font-family:'Open Sans';-inkscape-font-specification:'Open Sans Light';stroke-width:1.66466618;fill:#ffa500;fill-opacity:1"
         id="path4526" />
      <path
         d="m 204.07906,260.74926 q 2.55769,0 4.42177,0.93204 1.86408,0.93204 3.33801,3.18627 h 0.13005 q -0.13005,-2.73109 -0.13005,-5.3538 v -8.47506 h 2.12418 v 33.72682 h -1.4089 l -0.54188,-3.5981 h -0.1734 q -2.68775,4.03161 -7.71642,4.03161 -4.87696,0 -7.45632,-3.03455 -2.57937,-3.03454 -2.57937,-8.84353 0,-6.11245 2.55769,-9.34207 2.55769,-3.22963 7.43464,-3.22963 z m 0,1.95078 q -3.85821,0 -5.80899,2.70942 -1.9291,2.70941 -1.9291,7.86814 0,10.01401 7.78145,10.01401 3.98826,0 5.85234,-2.31926 1.86408,-2.31926 1.86408,-7.65139 v -0.36849 q 0,-5.46218 -1.84241,-7.84647 -1.82073,-2.40596 -5.91737,-2.40596 z"
         style="font-style:normal;font-variant:normal;font-weight:300;font-stretch:normal;font-family:'Open Sans';-inkscape-font-specification:'Open Sans Light';stroke-width:1.66466618;fill:#ffa500;fill-opacity:1"
         id="path4528" />
      <path
         d="m 236.20191,284.76553 -0.54188,-3.72815 h -0.1734 q -1.77738,2.27591 -3.66314,3.22962 -1.86408,0.93204 -4.42177,0.93204 -3.46805,0 -5.39715,-1.77738 -1.92911,-1.77738 -1.92911,-4.9203 0,-3.44638 2.86115,-5.35381 2.88282,-1.90743 8.32332,-2.0158 l 4.4868,-0.13006 v -1.56062 q 0,-3.35968 -1.36555,-5.07203 -1.36554,-1.71235 -4.40009,-1.71235 -3.27298,0 -6.78438,1.82073 l -0.80199,-1.86408 q 3.87989,-1.82073 7.67307,-1.82073 3.87989,0 5.78732,2.01581 1.9291,2.0158 1.9291,6.28584 v 15.67127 z m -8.67013,-1.51727 q 3.77151,0 5.93904,-2.14586 2.18921,-2.16753 2.18921,-6.00407 v -2.31926 l -4.11832,0.1734 q -4.96365,0.23843 -7.08783,1.56063 -2.10251,1.30052 -2.10251,4.07496 0,2.21089 1.34387,3.44638 1.36555,1.21382 3.83654,1.21382 z"
         style="font-style:normal;font-variant:normal;font-weight:300;font-stretch:normal;font-family:'Open Sans';-inkscape-font-specification:'Open Sans Light';stroke-width:1.66466618;fill:#ffa500;fill-opacity:1"
         id="path4530" />
      <path
         d="m 254.01905,260.74926 q 2.55769,0 4.42177,0.93204 1.86408,0.93204 3.338,3.18627 h 0.13005 q -0.13005,-2.73109 -0.13005,-5.3538 v -8.47506 h 2.12419 v 33.72682 h -1.4089 l -0.54188,-3.5981 h -0.17341 q -2.68774,4.03161 -7.71642,4.03161 -4.87695,0 -7.45631,-3.03455 -2.57937,-3.03454 -2.57937,-8.84353 0,-6.11245 2.55769,-9.34207 2.55769,-3.22963 7.43464,-3.22963 z m 0,1.95078 q -3.85821,0 -5.80899,2.70942 -1.9291,2.70941 -1.9291,7.86814 0,10.01401 7.78144,10.01401 3.98826,0 5.85234,-2.31926 1.86408,-2.31926 1.86408,-7.65139 v -0.36849 q 0,-5.46218 -1.8424,-7.84647 -1.82073,-2.40596 -5.91737,-2.40596 z"
         style="font-style:normal;font-variant:normal;font-weight:300;font-stretch:normal;font-family:'Open Sans';-inkscape-font-specification:'Open Sans Light';stroke-width:1.66466618;fill:#ffa500;fill-opacity:1"
         id="path4532" />
    </g>
    <path
       style="opacity:1;fill:#ffa500;fill-opacity:1;stroke:none;stroke-width:0.79374999;stroke-miterlimit:4;stroke-dasharray:none;stroke-dashoffset:0;stroke-opacity:1"
       d="M -0.53453904,32.937641 H 265.6659 v 8.552625 H -0.53453904 Z"
       id="rect4497" />
  </g>
</svg>
